<svg width="1917" height="2508" viewBox="0 0 1917 2508" fill="none" xmlns="http://www.w3.org/2000/svg">
<rect width="1917" height="2508" fill="white"/>
<path d="M606.001 100.003L824 673.5L346 721.5L765.001 1176.5L323.5 1151.5L700.5 1413L264.501 1455L346 1741.5L765 1525L765.001 1938.5L264.501 2039.5L596.483 2415" stroke="black" stroke-width="2"/>
<line x1="268" y1="2095.5" x2="368" y2="2095.5" stroke="white"/>
<path d="M1210 99.0093L1012.5 569.5L1540.5 704.5L1094 881.5L1496 1244L1049 1134.5L1094 1660L1636.5 1542L1496 1910.5L981.5 1812L1411.5 2129.5L815.5 2250.5L1188 2415.01" stroke="black" stroke-width="2"/>
<circle cx="1068.5" cy="2201.5" r="37.5" fill="#FFE600"/>
<circle cx="1085.5" cy="1904.5" r="37.5" fill="#FF0000"/>
<circle cx="958.5" cy="2217.5" r="37.5" fill="#351360"/>
<circle cx="1577.5" cy="1728.5" r="37.5" fill="#FF0000"/>
<circle cx="1084.5" cy="1512.5" r="37.5" fill="#FF0000"/>
<circle cx="1220.5" cy="76.5" r="37.5" fill="#351360"/>
<circle cx="993.5" cy="1816.5" r="37.5" fill="#FFE600"/>
<circle cx="1183.5" cy="164.5" r="37.5" fill="#351360"/>
<circle cx="1145.5" cy="265.5" r="37.5" fill="#FFE600"/>
<circle cx="1108.5" cy="365.5" r="37.5" fill="#FF0000"/>
<circle cx="1064.5" cy="460.5" r="37.5" fill="#351360"/>
<circle cx="1033.5" cy="553.5" r="37.5" fill="#FF0000"/>
<circle cx="1269.5" cy="628.5" r="37.5" fill="#FFE600"/>
<circle cx="1539.5" cy="703.5" r="37.5" fill="#FFE600"/>
<circle cx="1440.5" cy="740.5" r="37.5" fill="#FF0000"/>
<circle cx="1328.5" cy="798.5" r="37.5" fill="#351360"/>
<circle cx="1102.5" cy="884.5" r="37.5" fill="#FF0000"/>
<circle cx="1178.5" cy="957.5" r="37.5" fill="#FFE600"/>
<circle cx="1277.5" cy="1061.5" r="37.5" fill="#351360"/>
<circle cx="1047.5" cy="1144.5" r="37.5" fill="#351360"/>
<circle cx="1489.5" cy="1250.5" r="37.5" fill="#FFE600"/>
<circle cx="1383.5" cy="1225.5" r="37.5" fill="#FF0000"/>
<circle cx="1277.5" cy="1199.5" r="37.5" fill="#FFE600"/>
<circle cx="1160.5" cy="1165.5" r="37.5" fill="#FF0000"/>
<circle cx="1065.5" cy="1370.5" r="37.5" fill="#FFE600"/>
<circle cx="1103.5" cy="1654.5" r="37.5" fill="#FFE600"/>
<circle cx="1628.5" cy="1542.5" r="37.5" fill="#351360"/>
<circle cx="1478.5" cy="1904.5" r="37.5" fill="#351360"/>
<circle cx="1178.5" cy="2415.5" r="37.5" fill="#FF0000"/>
<circle cx="1178.5" cy="1972.5" r="37.5" fill="#351360"/>
<circle cx="1403.5" cy="2126.5" r="37.5" fill="#FFE600"/>
<circle cx="1178.5" cy="2180.5" r="37.5" fill="#FF0000"/>
<circle cx="842.5" cy="2252.5" r="37.5" fill="#FFE600"/>
<circle cx="958.5" cy="2317.5" r="37.5" fill="#FF0000"/>
<circle cx="1068.5" cy="2364.5" r="37.5" fill="#351360"/>
<circle cx="603.5" cy="113.5" r="37.5" fill="#FF0000"/>
<circle cx="688.5" cy="302.5" r="37.5" fill="#351360"/>
<circle cx="744.5" cy="460.5" r="37.5" fill="#FF0000"/>
<circle cx="804.5" cy="665.5" r="37.5" fill="#FFE600"/>
<circle cx="580.5" cy="686.5" r="37.5" fill="#FF0000"/>
<circle cx="356.5" cy="723.5" r="37.5" fill="#FFE600"/>
<circle cx="453.5" cy="846.5" r="37.5" fill="#351360"/>
<circle cx="593.5" cy="987.5" r="37.5" fill="#FF0000"/>
<circle cx="764.5" cy="1179.5" r="37.5" fill="#351360"/>
<circle cx="651.5" cy="1179.5" r="37.5" fill="#FFE600"/>
<circle cx="505.5" cy="1165.5" r="37.5" fill="#351360"/>
<circle cx="336.5" cy="1165.5" r="37.5" fill="#FF0000"/>
<circle cx="453.5" cy="1254.5" r="37.5" fill="#FFE600"/>
<circle cx="556.5" cy="1315.5" r="37.5" fill="#351360"/>
<circle cx="689.5" cy="1412.5" r="37.5" fill="#FFE600"/>
<circle cx="580.5" cy="1412.5" r="37.5" fill="#FF0000"/>
<circle cx="444.5" cy="1439.5" r="37.5" fill="#FFE600"/>
<circle cx="261.5" cy="1439.5" r="37.5" fill="#351360"/>
<circle cx="289.5" cy="1527.5" r="37.5" fill="#FF0000"/>
<circle cx="318.5" cy="1623.5" r="37.5" fill="#FFE600"/>
<circle cx="430.5" cy="1691.5" r="37.5" fill="#351360"/>
<circle cx="519.5" cy="1654.5" r="37.5" fill="#FF0000"/>
<circle cx="603.5" cy="1602.5" r="37.5" fill="#351360"/>
<circle cx="764.5" cy="1542.5" r="37.5" fill="#FFE600"/>
<circle cx="764.5" cy="1660.5" r="37.5" fill="#FF0000"/>
<circle cx="764.5" cy="1747.5" r="37.5" fill="#351360"/>
<circle cx="764.5" cy="1841.5" r="37.5" fill="#FFE600"/>
<circle cx="764.5" cy="1935.5" r="37.5" fill="#FF0000"/>
<circle cx="528.5" cy="1992.5" r="37.5" fill="#FFE600"/>
<circle cx="430.5" cy="2010.5" r="37.5" fill="#FFE600"/>
<circle cx="261.5" cy="2030.5" r="37.5" fill="#351360"/>
<circle cx="318.5" cy="2105.5" r="37.5" fill="#FF0000"/>
<circle cx="444.5" cy="2243.5" r="37.5" fill="#FFE600"/>
<circle cx="505.5" cy="2318.5" r="37.5" fill="#351360"/>
<circle cx="580.5" cy="2393.5" r="37.5" fill="#FF0000"/>
</svg>
