<svg width="1917" height="2508" viewBox="0 0 1917 2508" fill="none" xmlns="http://www.w3.org/2000/svg">
<rect width="1917" height="2508" fill="white"/>
<path d="M1333 79.0029L1213.5 303.5L1581 263.5L1490 439.5L1086.5 608.5L1436.5 671L1191.5 804.5L861.5 804.5L1022 880.5L1131 1070L1409.5 1119L1042 1355L1300.5 1415L1131 1700L1369.5 1571L1409.5 1898.5L993 1871.5L1086.5 2141L1300.5 2072L1436.5 2286L1213.5 2223.5L1022 2310.5L1326 2430" stroke="black" stroke-width="2"/>
<rect x="1017" y="1313" width="75" height="75" fill="#FF0000"/>
<circle cx="1318.5" cy="93.5" r="37.5" fill="#FF0000"/>
<circle cx="1092.5" cy="613.5" r="37.5" fill="#FF0000"/>
<circle cx="867.5" cy="817.5" r="37.5" fill="#351360"/>
<circle cx="1379.5" cy="1135.5" r="37.5" fill="#FFE600"/>
<circle cx="1130.5" cy="1699.5" r="37.5" fill="#FF0000"/>
<circle cx="1355.5" cy="1570.5" r="37.5" fill="#FFE600"/>
<circle cx="996.5" cy="1882.5" r="37.5" fill="#351360"/>
<circle cx="1034.5" cy="2305.5" r="37.5" fill="#FFE600"/>
<rect x="1243" y="1388" width="75" height="75" fill="#351360"/>
<rect x="1181" y="263" width="75" height="75" fill="#FFE600"/>
<rect x="1393" y="627" width="75" height="75" fill="#351360"/>
<rect x="980" y="855" width="75" height="75" fill="#FFE600"/>
<rect x="1355" y="1852" width="75" height="75" fill="#FFE600"/>
<rect x="1267" y="2045" width="75" height="75" fill="#351360"/>
<rect x="1267" y="2392" width="75" height="75" fill="#FF0000"/>
<path d="M1433 2243L1467.64 2303H1398.36L1433 2243Z" fill="#FFE600"/>
<path d="M1256 611L1290.64 671H1221.36L1256 611Z" fill="#FFE600"/>
<path d="M1216 1840L1250.64 1900H1181.36L1216 1840Z" fill="#FF0000"/>
<path d="M1221 1193L1255.64 1253H1186.36L1221 1193Z" fill="#FFE600"/>
<path d="M1390 1690L1424.64 1750H1355.36L1390 1690Z" fill="#351360"/>
<path d="M1573 223L1607.64 283H1538.36L1573 223Z" fill="#FF0000"/>
<path d="M1493 401L1527.64 461H1458.36L1493 401Z" fill="#351360"/>
<path d="M1181 775L1215.64 835H1146.36L1181 775Z" fill="#FF0000"/>
<path d="M1128 1018L1162.64 1078H1093.36L1128 1018Z" fill="#351360"/>
<path d="M1095 2098L1129.64 2158H1060.36L1095 2098Z" fill="#FF0000"/>
<path d="M1219 2190L1253.64 2250H1184.36L1219 2190Z" fill="#351360"/>
<path d="M697 2431L609.704 2271.92L717.978 2137.3L525.244 2110.53L471.088 1960.36L609.666 1837.4L471.063 1668.24L742.977 1547.01L742.964 1393.39L487.204 1427.89L476.677 1183.66L645.982 1279.9L778.902 1137.52L609.604 1120.24L588.179 997.259L841.915 922.201L476.645 812.565L682.701 705.14L778.853 572.678L564.707 572.658L471.063 437L841.915 390.5L609.704 259L797 116.5" stroke="black" stroke-width="3"/>
<circle cx="680.5" cy="2430.5" r="37.5" fill="#FFE600"/>
<circle cx="618.5" cy="249.5" r="37.5" fill="#351360"/>
<circle cx="680.5" cy="701.5" r="37.5" fill="#FFE600"/>
<circle cx="827.5" cy="924.5" r="37.5" fill="#FFE600"/>
<circle cx="618.5" cy="1122.5" r="37.5" fill="#351360"/>
<circle cx="475.5" cy="1191.5" r="37.5" fill="#FF0000"/>
<circle cx="550.5" cy="1757.5" r="37.5" fill="#FFE600"/>
<circle cx="693.5" cy="2140.5" r="37.5" fill="#FF0000"/>
<rect x="438" y="1920" width="75" height="75" fill="#FFE600"/>
<rect x="531" y="539" width="75" height="75" fill="#FFE600"/>
<rect x="753" y="79" width="75" height="75" fill="#FF0000"/>
<rect x="732" y="539" width="75" height="75" fill="#351360"/>
<rect x="438" y="780" width="75" height="75" fill="#351360"/>
<rect x="694" y="1364" width="75" height="75" fill="#351360"/>
<rect x="438" y="1624" width="75" height="75" fill="#FF0000"/>
<rect x="581" y="2230" width="75" height="75" fill="#351360"/>
<path d="M658 377L692.641 437H623.359L658 377Z" fill="#351360"/>
<path d="M830 361L864.641 421H795.359L830 361Z" fill="#FFE600"/>
<path d="M473 401L507.641 461H438.359L473 401Z" fill="#FF0000"/>
<path d="M653 831L687.641 891H618.359L653 831Z" fill="#FFE600"/>
<path d="M590 963L624.641 1023H555.359L590 963Z" fill="#FF0000"/>
<path d="M772 1098L806.641 1158H737.359L772 1098Z" fill="#FF0000"/>
<path d="M649 1233L683.641 1293H614.359L649 1233Z" fill="#FFE600"/>
<path d="M488 1386L522.641 1446H453.359L488 1386Z" fill="#351360"/>
<path d="M729 1507L763.641 1567H694.359L729 1507Z" fill="#FF0000"/>
<path d="M603 1807L637.641 1867H568.359L603 1807Z" fill="#FF0000"/>
<path d="M528 2063L562.641 2123H493.359L528 2063Z" fill="#351360"/>
</svg>
